<svg width="41" height="41" viewBox="0 0 41 41" fill="none" xmlns="http://www.w3.org/2000/svg">
<g id="ep:office-building">
<path id="Vector" d="M8.12848 5.11749V32.6175H23.1285V5.11749H8.12848ZM6.87848 2.61749H24.3785C24.71 2.61749 25.0279 2.74919 25.2624 2.98361C25.4968 3.21803 25.6285 3.53597 25.6285 3.86749V33.8675C25.6285 34.199 25.4968 34.517 25.2624 34.7514C25.0279 34.9858 24.71 35.1175 24.3785 35.1175H6.87848C6.54696 35.1175 6.22902 34.9858 5.9946 34.7514C5.76018 34.517 5.62848 34.199 5.62848 33.8675V3.86749C5.62848 3.53597 5.76018 3.21803 5.9946 2.98361C6.22902 2.74919 6.54696 2.61749 6.87848 2.61749Z" fill="white"/>
<path id="Vector_2" d="M10.6285 10.1175H20.6285V12.6175H10.6285V10.1175ZM10.6285 17.6175H20.6285V20.1175H10.6285V17.6175ZM10.6285 25.1175H20.6285V27.6175H10.6285V25.1175ZM25.6285 20.1175H30.6285V22.6175H25.6285V20.1175ZM25.6285 25.1175H30.6285V27.6175H25.6285V25.1175ZM3.12848 32.6175H38.1285V35.1175H3.12848V32.6175Z" fill="white"/>
<path id="Vector_3" d="M25.6285 15.1175V32.6175H33.1285V15.1175H25.6285ZM24.3785 12.6175H34.3785C34.71 12.6175 35.0279 12.7492 35.2624 12.9836C35.4968 13.218 35.6285 13.536 35.6285 13.8675V33.8675C35.6285 34.199 35.4968 34.517 35.2624 34.7514C35.0279 34.9858 34.71 35.1175 34.3785 35.1175H24.3785C24.047 35.1175 23.729 34.9858 23.4946 34.7514C23.2602 34.517 23.1285 34.199 23.1285 33.8675V13.8675C23.1285 13.536 23.2602 13.218 23.4946 12.9836C23.729 12.7492 24.047 12.6175 24.3785 12.6175Z" fill="white"/>
</g>
</svg>
