<svg width="12" height="8" viewBox="0 0 12 8" fill="none" xmlns="http://www.w3.org/2000/svg">
<path id="Vector" d="M0.70521 1.11731C0.612506 1.20983 0.538959 1.31971 0.488777 1.44069C0.438596 1.56166 0.412766 1.69134 0.412766 1.82231C0.412766 1.95328 0.438596 2.08296 0.488777 2.20394C0.538959 2.32491 0.612506 2.4348 0.70521 2.52731L5.29521 7.11731C5.38772 7.21002 5.49761 7.28356 5.61859 7.33374C5.73956 7.38393 5.86924 7.40976 6.00021 7.40976C6.13118 7.40976 6.26086 7.38393 6.38183 7.33374C6.50281 7.28356 6.6127 7.21002 6.70521 7.11731L11.2952 2.52731C11.3878 2.43473 11.4612 2.32482 11.5113 2.20385C11.5614 2.08289 11.5872 1.95324 11.5872 1.82231C11.5872 1.69138 11.5614 1.56173 11.5113 1.44077C11.4612 1.3198 11.3878 1.20989 11.2952 1.11731C11.2026 1.02473 11.0927 0.95129 10.9718 0.901185C10.8508 0.85108 10.7211 0.825291 10.5902 0.825291C10.4593 0.825291 10.3296 0.85108 10.2087 0.901185C10.0877 0.95129 9.97779 1.02473 9.88521 1.11731L5.99521 4.99731L2.11521 1.11731C1.72521 0.727312 1.08521 0.737311 0.70521 1.11731Z" fill="#79AB25"/>
</svg>
