<svg width="33" height="31" viewBox="0 0 33 31" fill="none" xmlns="http://www.w3.org/2000/svg">
<path d="M17.852 0.754318C17.4441 0.346559 16.891 0.117493 16.3142 0.117493C15.7375 0.117493 15.1844 0.346559 14.7765 0.754318L0.318931 15.2097C0.217818 15.3108 0.13761 15.4309 0.0828875 15.563C0.0281652 15.6951 0 15.8367 0 15.9797C0 16.1227 0.0281652 16.2643 0.0828875 16.3964C0.13761 16.5285 0.217818 16.6485 0.318931 16.7496C0.523139 16.9538 0.800105 17.0686 1.0889 17.0686C1.23189 17.0686 1.37349 17.0404 1.5056 16.9857C1.63771 16.931 1.75775 16.8507 1.85887 16.7496L3.26395 15.3424V26.8549C3.26395 27.7202 3.60768 28.5501 4.21953 29.1619C4.83139 29.7738 5.66123 30.1175 6.52652 30.1175H26.102C26.9673 30.1175 27.7971 29.7738 28.409 29.1619C29.0208 28.5501 29.3645 27.7202 29.3645 26.8549V15.3424L30.7696 16.7496C30.9738 16.9538 31.2508 17.0686 31.5396 17.0686C31.8284 17.0686 32.1054 16.9538 32.3096 16.7496C32.5138 16.5454 32.6285 16.2685 32.6285 15.9797C32.6285 15.6909 32.5138 15.4139 32.3096 15.2097L27.1895 10.0918V2.92937C27.1895 2.64094 27.0749 2.36432 26.871 2.16037C26.667 1.95642 26.3904 1.84184 26.102 1.84184H23.9269C23.6385 1.84184 23.3619 1.95642 23.1579 2.16037C22.954 2.36432 22.8394 2.64094 22.8394 2.92937V5.74171L17.852 0.754318ZM27.1895 13.1673V26.8549C27.1895 27.1433 27.0749 27.42 26.871 27.6239C26.667 27.8279 26.3904 27.9424 26.102 27.9424H6.52652C6.23809 27.9424 5.96148 27.8279 5.75753 27.6239C5.55358 27.42 5.439 27.1433 5.439 26.8549V13.1673L16.3142 2.29208L27.1895 13.1673Z" fill="white"/>
</svg>
