<svg width="21" height="20" viewBox="0 0 21 20" fill="none" xmlns="http://www.w3.org/2000/svg">
<g id="ph:map-pin-fill">
<path id="Vector" d="M10.3412 1.25C8.51843 1.25207 6.77095 1.97706 5.48208 3.26592C4.19322 4.55479 3.46822 6.30227 3.46616 8.125C3.46616 14.0078 9.71616 18.4531 9.98178 18.6406C10.0882 18.7115 10.2133 18.7493 10.3412 18.7493C10.469 18.7493 10.5941 18.7115 10.7005 18.6406C10.9662 18.4531 17.2162 14.0078 17.2162 8.125C17.2141 6.30227 16.4891 4.55479 15.2002 3.26592C13.9114 1.97706 12.1639 1.25207 10.3412 1.25ZM10.3412 5.625C10.8356 5.625 11.319 5.77162 11.7301 6.04633C12.1412 6.32103 12.4616 6.71148 12.6509 7.16829C12.8401 7.62511 12.8896 8.12777 12.7931 8.61273C12.6967 9.09768 12.4586 9.54314 12.1089 9.89277C11.7593 10.2424 11.3138 10.4805 10.8289 10.577C10.3439 10.6734 9.84126 10.6239 9.38445 10.4347C8.92763 10.2455 8.53719 9.92505 8.26248 9.51393C7.98778 9.1028 7.84116 8.61945 7.84116 8.125C7.84116 7.46196 8.10455 6.82607 8.57339 6.35723C9.04223 5.88839 9.67812 5.625 10.3412 5.625Z" fill="#79AB25"/>
</g>
</svg>
