<svg width="18" height="19" viewBox="0 0 18 19" fill="none" xmlns="http://www.w3.org/2000/svg">
<g id="teenyicons:cost-estimate-outline" clip-path="url(#clip0_827_74)">
<path id="Vector" d="M5.40001 8.51752H4.80001V9.71752H5.40001V8.51752ZM12.6 9.71752H13.2V8.51752H12.6V9.71752ZM10.2 12.1175H9.60001V13.3175H10.2V12.1175ZM12.6 13.3175H13.2V12.1175H12.6V13.3175ZM5.40001 4.91752H4.80001V6.11752H5.40001V4.91752ZM7.80001 6.11752H8.40001V4.91752H7.80001V6.11752ZM12.6 0.717523L13.0248 0.292723L12.8484 0.117523H12.6V0.717523ZM16.2 4.31752H16.8V4.06912L16.6248 3.89272L16.2 4.31752ZM5.40001 9.71752H12.6V8.51752H5.40001V9.71752ZM10.2 13.3175H12.6V12.1175H10.2V13.3175ZM5.40001 6.11752H7.80001V4.91752H5.40001V6.11752ZM15 16.9175H3.00001V18.1175H15V16.9175ZM2.40001 16.3175V1.91752H1.20001V16.3175H2.40001ZM3.00001 1.31752H12.6V0.117523H3.00001V1.31752ZM15.6 4.31752V16.3175H16.8V4.31752H15.6ZM12.1752 1.14232L15.7752 4.74232L16.6248 3.89272L13.0248 0.292723L12.1752 1.14232ZM3.00001 16.9175C2.84088 16.9175 2.68827 16.8543 2.57575 16.7418C2.46323 16.6293 2.40001 16.4767 2.40001 16.3175H1.20001C1.20001 16.7949 1.38965 17.2528 1.72722 17.5903C2.06479 17.9279 2.52262 18.1175 3.00001 18.1175V16.9175ZM15 18.1175C15.4774 18.1175 15.9352 17.9279 16.2728 17.5903C16.6104 17.2528 16.8 16.7949 16.8 16.3175H15.6C15.6 16.4767 15.5368 16.6293 15.4243 16.7418C15.3118 16.8543 15.1591 16.9175 15 16.9175V18.1175ZM2.40001 1.91752C2.40001 1.75839 2.46323 1.60578 2.57575 1.49326C2.68827 1.38074 2.84088 1.31752 3.00001 1.31752V0.117523C2.52262 0.117523 2.06479 0.307166 1.72722 0.644731C1.38965 0.982296 1.20001 1.44013 1.20001 1.91752H2.40001Z" fill="white"/>
</g>
<defs>
<clipPath id="clip0_827_74">
<rect width="18" height="18" fill="white" transform="translate(0 0.117523)"/>
</clipPath>
</defs>
</svg>
