<svg width="15" height="14" viewBox="0 0 15 14" fill="none" xmlns="http://www.w3.org/2000/svg">
<path id="Vector" d="M10.5952 14C5.02881 14 0.5 9.47119 0.5 3.90482C0.502105 2.95003 0.850859 2.02848 1.48142 1.31152C2.11198 0.594565 2.98145 0.130981 3.92815 0.00696131C4.16949 -0.0197973 4.41307 0.0310137 4.62358 0.152026C4.83409 0.273038 5.00059 0.457959 5.09891 0.679973L6.50803 3.96792C6.58113 4.13858 6.61043 4.3248 6.59329 4.50967C6.57615 4.69453 6.51311 4.87219 6.40988 5.02651L5.24614 6.80719C5.77311 7.87664 6.64141 8.74001 7.71384 9.26087L9.47349 8.09011C9.62765 7.9862 9.80575 7.9233 9.99097 7.90735C10.1762 7.89141 10.3624 7.92294 10.5321 7.99898L13.82 9.40108C14.042 9.49941 14.227 9.6659 14.348 9.87642C14.469 10.0869 14.5198 10.3305 14.493 10.5718C14.369 11.5186 13.9054 12.388 13.1885 13.0186C12.4715 13.6491 11.55 13.9979 10.5952 14ZM4.06836 1.12164C3.39181 1.20861 2.77016 1.53919 2.31979 2.0515C1.86943 2.56381 1.62124 3.2227 1.62169 3.90482C1.62354 6.28417 2.56956 8.56553 4.25201 10.248C5.93447 11.9304 8.21583 12.8765 10.5952 12.8783C11.2773 12.8788 11.9362 12.6306 12.4485 12.1802C12.9608 11.7298 13.2914 11.1082 13.3784 10.4316L10.0904 9.02953L8.33778 10.2003C8.17652 10.3069 7.99044 10.37 7.79759 10.3835C7.60475 10.397 7.41168 10.3605 7.23713 10.2774C5.93103 9.6456 4.87453 8.59404 4.23662 7.29091C4.15251 7.11695 4.11477 6.92421 4.12705 6.73137C4.13934 6.53854 4.20123 6.35214 4.30672 6.19026L5.47748 4.40958L4.06836 1.12164Z" fill="white"/>
</svg>
