<svg width="24" height="24" viewBox="0 0 24 24" fill="none" xmlns="http://www.w3.org/2000/svg">
<g id="fluent:key-24-regular">
<path id="Vector" d="M18.25 7.00005C18.25 7.33157 18.1183 7.64951 17.8839 7.88393C17.6494 8.11835 17.3315 8.25005 17 8.25005C16.6685 8.25005 16.3505 8.11835 16.1161 7.88393C15.8817 7.64951 15.75 7.33157 15.75 7.00005C15.75 6.66853 15.8817 6.35059 16.1161 6.11617C16.3505 5.88174 16.6685 5.75005 17 5.75005C17.3315 5.75005 17.6494 5.88174 17.8839 6.11617C18.1183 6.35059 18.25 6.66853 18.25 7.00005ZM15.5 2.05005C13.7631 2.05111 12.0977 2.74154 10.8696 3.96967C9.64146 5.1978 8.95103 6.86321 8.94997 8.60005C8.94997 8.98705 8.99998 9.36005 9.05998 9.70405C9.06877 9.74735 9.067 9.79213 9.05481 9.83461C9.04263 9.87708 9.02039 9.91599 8.98997 9.94805L2.75497 16.184C2.23918 16.6996 1.94926 17.3988 1.94897 18.128V20.3C1.94897 21.266 2.73297 22.05 3.69897 22.05H6.19897C6.6631 22.05 7.10822 21.8657 7.43641 21.5375C7.7646 21.2093 7.94897 20.7642 7.94897 20.3V19.05H9.69997C10.39 19.05 10.95 18.49 10.95 17.8V16.05H12.7C13.0237 16.0503 13.3348 15.9249 13.568 15.7003C13.8011 15.4758 13.9381 15.1695 13.95 14.846C14.446 14.974 14.97 15.05 15.5 15.05C17.2368 15.049 18.9022 14.3586 20.1304 13.1304C21.3585 11.9023 22.0489 10.2369 22.05 8.50005C22.05 4.86905 19.097 2.05005 15.5 2.05005ZM10.45 8.60005C10.451 7.26103 10.9834 5.97716 11.9303 5.03033C12.8771 4.0835 14.161 3.55111 15.5 3.55005C18.302 3.55005 20.55 5.73105 20.55 8.50005C20.5489 9.83907 20.0165 11.1229 19.0697 12.0698C18.1229 13.0166 16.839 13.549 15.5 13.55C14.82 13.55 14.12 13.379 13.495 13.11C13.3808 13.061 13.2563 13.0411 13.1325 13.0521C13.0088 13.0631 12.8897 13.1047 12.786 13.1731C12.6823 13.2415 12.5972 13.3346 12.5384 13.4441C12.4795 13.5535 12.4488 13.6758 12.449 13.8V14.55H10.7C10.01 14.55 9.44997 15.11 9.44997 15.8V17.55H7.69997C7.00997 17.55 6.44997 18.11 6.44997 18.8V20.3C6.44997 20.3664 6.42364 20.4299 6.37675 20.4768C6.32987 20.5237 6.26628 20.55 6.19997 20.55H3.69997C3.63367 20.55 3.57008 20.5237 3.5232 20.4768C3.47631 20.4299 3.44997 20.3664 3.44997 20.3V18.128C3.44997 17.797 3.58197 17.478 3.81597 17.244L10.052 11.009C10.2527 10.8066 10.4017 10.5587 10.4863 10.2865C10.5709 10.0142 10.5886 9.72561 10.538 9.44505C10.4843 9.16645 10.4549 8.88373 10.45 8.60005Z" fill="#79AB25" stroke="#79AB25" stroke-width="0.3"/>
</g>
</svg>
